<svg height="24" viewBox="0 0 24 24" width="24" xmlns="http://www.w3.org/2000/svg"><path d="m12 1c-6.07578125 0-11 4.92421875-11 11 0 6.0757812 4.92421875 11 11 11 6.0757812 0 11-4.9242188 11-11 0-6.07578125-4.9242188-11-11-11zm-9.16738281 11c0-.9582031.14824219-1.8820313.42109375-2.75h2.50507812c-.11171875.8550781-.17617187 1.7681641-.17617187 2.75s.06445312 1.8949219.17617187 2.75h-2.50292968c-.275-.8679687-.42324219-1.7917969-.42324219-2.75zm1.23535156 4.5847656h2.02597656c.28789063 1.2246094.68105469 2.3009766 1.12792969 3.2355469-1.30195313-.7992187-2.3890625-1.9142578-3.15390625-3.2355469zm2.02597656-9.16738279h-2.02597656c.76699219-1.3234375 1.85195312-2.43847656 3.15390625-3.23554687-.446875.93457031-.84003906 2.0109375-1.12792969 3.23554687zm4.98867189 13.70273439c-.3695313-.0365235-.7326172-.0988281-1.08925783-.1761719-.76914062-1.0720703-1.51894531-2.5029297-2.0109375-4.3591797h3.10019533zm0-6.3701172h-3.47617189c-.12246093-.8443359-.19121093-1.7595703-.19121093-2.75 0-.9925781.07089843-1.9056641.19335937-2.75h3.47187505v5.5zm0-7.33261719h-3.10234376c.49199218-1.85625 1.24394531-3.28710937 2.01308593-4.35917969.35664063-.07949218.71972653-.14179687 1.08925783-.17832031zm1.8347656-4.5375c.3695313.03652344.7326172.09882813 1.0892578.17832031.7691406 1.07207032 1.5210938 2.50292969 2.013086 4.35917969h-3.1023438zm1.0892578 18.06406249c-.3566406.0794922-.7197265.1396484-1.0914062.1761719v-4.5353516h3.1023437c-.4919922 1.85625-1.2417968 3.2871094-2.0109375 4.3591797zm2.3869141-6.1939453h-3.4761719v-5.5h3.471875c.122461.8443359.1933594 1.7574219.1933594 2.75 0 .9904297-.06875 1.9056641-.1890625 2.75zm3.5384765-7.33261719h-2.0259765c-.2878906-1.22460937-.6810547-2.30097656-1.1279297-3.23554687 1.3019531.79707031 2.3890625 1.91210937 3.1539062 3.23554687zm-3.1539062 12.40292969c.446875-.9367187.8400391-2.0109375 1.1279297-3.2355469h2.0259766c-.7648438 1.3212891-1.8519532 2.4363282-3.1539063 3.2355469zm1.4609375-5.0703125c.1117188-.8550781.1761719-1.7681641.1761719-2.75s-.0644531-1.8949219-.1761719-2.75h2.5050781c.2728516.8679687.4210938 1.7917969.4210938 2.75s-.1482422 1.8820313-.4210938 2.75z" fill="#FFFFFF" fill-rule="evenodd"/></svg>