<svg height="24" viewBox="0 0 24 24" width="24" xmlns="http://www.w3.org/2000/svg"><path d="m12 1c4.3860211 0 7.9584092 3.7043664 7.9863966 8.26946188.0729671.76770372.1139486 5.21529352-7.2557263 12.96185512l-.7306703.768683-.7306703-.768683c-7.36967488-7.7465616-7.32869337-12.1941514-7.25572629-12.96185512.02798737-4.56509548 3.60037553-8.26946188 7.98639659-8.26946188zm0 1.95842792c-3.30151038 0-5.98729857 2.8553879-5.98729857 6.36489073l-.00899594.12925624-.00069346.01246102c-.01150009.24157396-.08994257 3.96567849 5.99698797 10.64628289 6.2961592-6.9083545 6.0002927-10.62153378 5.9962945-10.65874391l-.0089959-.12925624c0-3.50950283-2.6857882-6.36489073-5.9872986-6.36489073zm0 1.95842791c2.2050051 0 3.998196 1.75670984 3.998196 3.91685584 0 2.16014603-1.7931909 3.91685583-3.998196 3.91685583-2.20500512 0-3.99819604-1.7567098-3.99819604-3.91685583 0-2.160146 1.79319092-3.91685584 3.99819604-3.91685584zm0 1.95842792c-1.1025026 0-1.999098.87835492-1.999098 1.95842792 0 1.08007299.8965954 1.95842793 1.999098 1.95842793s1.999098-.87835494 1.999098-1.95842793c0-1.080073-.8965954-1.95842792-1.999098-1.95842792z" fill="#446672" fill-rule="evenodd"/></svg>