<svg xmlns="http://www.w3.org/2000/svg" width="24" height="24" viewBox="0 0 24 24">
    <path fill="#FFF" fill-rule="evenodd" d="M12 2c5.523 0 10 4.477 10 10 0 3.183-1.487 6.018-3.804 7.85L18 20c-1.672 1.256-3.749 2-6 2-5.523 0-10-4.477-10-10S6.477 2 12 2zm2 16h-4c-.765 0-1.43.43-1.766 1.06 1.123.6 2.405.94 3.766.94 1.361 0 2.643-.34 3.765-.94-.314-.59-.914-1.003-1.616-1.055L14 18zM12 4c-4.418 0-8 3.582-8 8 0 2.335 1 4.437 2.596 5.9.672-1.088 1.85-1.829 3.204-1.895L10 16h4c1.438 0 2.7.76 3.404 1.899C19 16.437 20 14.335 20 12c0-4.418-3.582-8-8-8zm0 2c2.206 0 4 1.794 4 4s-1.794 4-4 4-4-1.794-4-4 1.794-4 4-4zm0 2c-1.103 0-2 .897-2 2s.897 2 2 2 2-.897 2-2-.897-2-2-2z"/>
</svg>
