<svg xmlns="http://www.w3.org/2000/svg" width="16" height="16" viewBox="0 0 16 16">
    <path fill="#FFF" fill-rule="evenodd" d="M6 12.667H1.333c-.368 0-.666-.299-.666-.667V2c0-.368.298-.667.666-.667h4c1.091 0 2.06.524 2.668 1.335.566-.757 1.447-1.264 2.45-1.328l.216-.007h4c.334 0 .611.247.66.568l.006.099v10c0 .335-.246.612-.568.66l-.098.007H10c-.693 0-1.263.528-1.327 1.205l-.006.12v-.01V14c0 .368-.299.667-.667.667-.368 0-.667-.299-.667-.667 0-.736-.597-1.333-1.333-1.333zm-.667-10H2v8.666h4c.486 0 .941.13 1.333.357V4.667c0-1.105-.895-2-2-2zm8.667 0h-3.333c-1.105 0-2 .895-2 2v7.023c.337-.195.719-.318 1.127-.349l.206-.008h4V2.667z"/>
</svg>
