<?xml version="1.0" encoding="UTF-8"?>
<svg width="20px" height="20px" viewBox="0 0 20 20" version="1.1" xmlns="http://www.w3.org/2000/svg" xmlns:xlink="http://www.w3.org/1999/xlink">
    <title>6E87B6D8-6C2D-4079-8239-5699C4D4682F@3x</title>
    <g id="Search-Preview" stroke="none" stroke-width="1" fill="none" fill-rule="evenodd">
        <g id="Search-Preview-Specs" transform="translate(-323.000000, -2624.000000)" fill="#312D2A">
            <g id="Leading-Visual-Copy-35" transform="translate(323.000000, 2624.000000)">
                <path d="M20,0 L20,20 L0,20 L0,0 L20,0 Z M18,2 L2,2 L2,18 L18,18 L18,2 Z M9.55001581,3 C9.81203044,3 10.042333,3.34395821 10.2060921,3.55595094 C10.3594539,3.75522411 10.7067272,4.17761962 10.0116606,7.16088734 C10.7124458,8.63635675 11.7053981,10.1393852 12.6567607,11.1686099 C13.3383107,11.0430042 13.9247244,10.9788764 14.4024852,10.9788764 C15.2166021,10.9788764 15.7104789,11.1723198 15.9111488,11.5708661 C16.0780272,11.9005148 16.0094043,12.2858116 15.7089193,12.7156269 C15.4188316,13.1284827 15.0195712,13.3468353 14.5542873,13.3468353 C13.922125,13.3468353 13.1859887,12.9398092 12.3651135,12.1358268 C10.8902414,12.450106 9.16791114,13.0108268 7.77569848,13.6314355 C7.34108691,14.5716233 6.92467079,15.3289673 6.53684755,15.8843882 C6.00398049,16.6449122 5.54441515,17 5.08952863,17 C4.90861377,17 4.73497709,16.940642 4.58681405,16.8277559 C4.04562907,16.4133101 3.97284723,15.9527559 4.00715867,15.6390067 C4.10177506,14.7767262 5.14827398,13.8731072 7.11858242,12.9530588 C7.90046735,11.2062386 8.64440175,9.05398243 9.08785112,7.25575409 C8.56902056,6.10463356 8.06474636,4.61114476 8.43229467,3.7350848 C8.5612225,3.42822532 8.72186242,3.19291339 9.02182759,3.09115687 C9.14035802,3.05087826 9.43980331,3 9.55001581,3 Z M6.47342337,14.2833131 C5.36246054,14.9198213 4.90965351,15.4429134 4.87690168,15.7375833 C4.87170298,15.7863416 4.85766648,15.9145972 5.10096578,16.1043307 C5.17842646,16.0794216 5.63071362,15.8690188 6.47342337,14.2833131 Z M9.67946352,8.44079346 C9.30775625,9.7519685 8.81699869,11.16755 8.28933033,12.449576 C9.37585926,12.0197608 10.5570046,11.6445336 11.6664078,11.3790127 C10.9651028,10.5480012 10.2632779,9.51029679 9.67946352,8.44079346 Z M14.5048996,11.8713658 C14.2423651,11.8718958 13.9127674,11.8835554 13.5634145,11.9291339 C13.986589,12.2614325 14.0900431,12.4294367 14.3676539,12.4294367 C14.4887837,12.4294367 14.8355372,12.4241369 14.9961771,12.1957147 C15.0736378,12.0849485 15.1043101,12.013931 15.1157472,11.9757723 C15.0518032,11.9413234 14.9670643,11.8713658 14.5048996,11.8713658 Z M9.36390224,3.95608722 C9.31295496,3.97357662 8.67247475,4.88726529 9.41380979,5.66050878 C9.90716671,4.53959721 9.38625667,3.94866747 9.36390224,3.95608722 Z" id="Combined-Shape"></path>
            </g>
        </g>
    </g>
</svg>