<?xml version="1.0" encoding="UTF-8"?>
<svg width="20px" height="20px" viewBox="0 0 20 20" version="1.1" xmlns="http://www.w3.org/2000/svg" xmlns:xlink="http://www.w3.org/1999/xlink">
    <title>1A115402-F5AC-4009-BE38-DF4216C640D5@2x</title>
    <g id="Search-Preview" stroke="none" stroke-width="1" fill="none" fill-rule="evenodd">
        <g id="Search-Preview-Specs" transform="translate(-391.000000, -2365.000000)">
            <g id="Leading-Visual-Copy-33" transform="translate(391.000000, 2365.000000)">
                <rect id="Rectangle" x="0" y="0" width="20" height="20"></rect>
                <path d="M16.7827827,0 L20,20 L13.2172173,20 L12,12.434 L12,20 L0,20 L0,0 L16.7827827,0 Z M5,16 L2,16 L2,18 L5,18 L5,16 Z M10,16 L7,16 L7,18 L10,18 L10,16 Z M15.1467051,2 L12.2782342,2 L14.8523297,18 L17.7208006,18 L15.1467051,2 Z M5,6 L2,6 L2,14 L5,14 L5,6 Z M10,6 L7,6 L7,14 L10,14 L10,6 Z M5,2 L2,2 L2,4 L5,4 L5,2 Z M10,2 L7,2 L7,4 L10,4 L10,2 Z" id="Combined-Shape" fill="#312D2A"></path>
            </g>
        </g>
    </g>
</svg>