<?xml version="1.0" encoding="UTF-8"?>
<svg width="14px" height="14px" viewBox="0 0 14 14" version="1.1" xmlns="http://www.w3.org/2000/svg" xmlns:xlink="http://www.w3.org/1999/xlink">
    <title>Icon Copy 17</title>
    <g id="Scopes" stroke="none" stroke-width="1" fill="none" fill-rule="evenodd">
        <g id="x-/-24-/-States-/-01-High-Opacity" transform="translate(-1.000000, -1.000000)" fill="#FFFFFF">
            <g id="24-/-Documents-/-library">
                <path d="M12.5647514,1.33333333 L14.7869736,14.6666667 L10.1019153,14.6666667 L9.33333333,10.0583333 L9.33333333,14.6666667 L1.33333333,14.6666667 L1.33333333,1.33333333 L12.5647514,1.33333333 Z M4.66633333,11.9993333 L2.66633333,11.9993333 L2.66666667,13.3333333 L4.66666667,13.3333333 L4.66633333,11.9993333 Z M7.99933333,11.9993333 L5.99933333,11.9993333 L6,13.3333333 L8,13.3333333 L7.99933333,11.9993333 Z M11.4346667,2.66666667 L9.45333333,2.66666667 L11.2313333,13.3333333 L13.2126667,13.3333333 L11.4346667,2.66666667 Z M4.66633333,5.33233333 L2.66633333,5.33233333 L2.66633333,10.6663333 L4.66633333,10.6663333 L4.66633333,5.33233333 Z M7.99933333,5.33233333 L5.99933333,5.33233333 L5.99933333,10.6663333 L7.99933333,10.6663333 L7.99933333,5.33233333 Z M4.66666667,2.66666667 L2.66666667,2.66666667 L2.66633333,3.99933333 L4.66633333,3.99933333 L4.66666667,2.66666667 Z M8,2.66666667 L6,2.66666667 L5.99933333,3.99933333 L7.99933333,3.99933333 L8,2.66666667 Z" id="Combined-Shape"/>
            </g>
        </g>
    </g>
</svg>