<?xml version="1.0" encoding="UTF-8"?>
<svg width="14px" height="14px" viewBox="0 0 14 14" version="1.1" xmlns="http://www.w3.org/2000/svg" xmlns:xlink="http://www.w3.org/1999/xlink">
    <title>@3xIcon Copy 21</title>
    <g id="Scopes" stroke="none" stroke-width="1" fill="none" fill-rule="evenodd">
        <g id="Scope-Specs" transform="translate(-140.000000, -925.000000)" fill="#FCFBFA">
            <g id="Icon-Copy-21" transform="translate(139.000000, 924.000000)">
                <path d="M14.6666667,1.33333333 L14.6666667,14.6666667 L1.33333333,14.6666667 L1.33333333,1.33333333 L14.6666667,1.33333333 Z M5.33333333,7.33333333 C4.99179532,7.33333333 4.70971226,7.59102083 4.67115722,7.92232273 L4.66666667,8 L4.66666667,8.66666667 L2.66633333,8.66633333 L2.66666667,13.3333333 L7.33333333,13.3333333 L7.33333333,12.5526667 L7.32563312,12.5500283 C6.58814418,12.2857636 6.05072874,11.6004656 6.00339653,10.784144 L6,10.6666667 C6,9.84246783 6.49910566,9.13436889 7.21143054,8.82825629 L7.33333333,8.78 L7.33333333,8.66633333 L6,8.66666667 L6,8 C6,7.63218983 5.7011435,7.33333333 5.33333333,7.33333333 Z M8.66666667,10 L8,10 C7.63218983,10 7.33333333,10.2988565 7.33333333,10.6666667 C7.33333333,11.0082047 7.59102083,11.2902877 7.92232273,11.3288428 L8,11.3333333 L8.66666667,11.3333333 L8.66633333,13.3333333 L13.3333333,13.3333333 L13.3333333,8.66633333 L12.5526667,8.66666667 L12.5500283,8.67436688 C12.2857636,9.41185582 11.6004656,9.94927126 10.784144,9.99660347 L10.6666667,10 C9.84246783,10 9.13436889,9.50089434 8.82825629,8.78856946 L8.78,8.66666667 L8.66633333,8.66633333 L8.66666667,10 Z M13.3333333,2.66666667 L8.66633333,2.66633333 L8.66666667,3.44666667 L8.67436688,3.44997168 C9.41185582,3.7142364 9.94927126,4.39953441 9.99660347,5.21585597 L10,5.33333333 C10,6.15753217 9.50089434,6.86563111 8.78856946,7.17174371 L8.66666667,7.21933333 L8.66633333,7.33333333 L10,7.33333333 L10,8 C10,8.36781017 10.2988565,8.66666667 10.6666667,8.66666667 C11.0082047,8.66666667 11.2902877,8.40897917 11.3288428,8.07767727 L11.3333333,8 L11.3333333,7.33333333 L13.3333333,7.33333333 L13.3333333,2.66666667 Z M7.33333333,2.66633333 L2.66666667,2.66666667 L2.66633333,7.33333333 L3.44666667,7.33333333 L3.44997168,7.32563312 C3.7142364,6.58814418 4.39953441,6.05072874 5.21585597,6.00339653 L5.33333333,6 C6.15753217,6 6.86563111,6.49910566 7.17174371,7.21143054 L7.21933333,7.33333333 L7.33333333,7.33333333 L7.33333333,6 L8,6 C8.36781017,6 8.66666667,5.7011435 8.66666667,5.33333333 C8.66666667,4.99179532 8.40897917,4.70971226 8.07767727,4.67115722 L8,4.66666667 L7.33333333,4.66666667 L7.33333333,2.66633333 Z" id="Combined-Shape"></path>
            </g>
        </g>
    </g>
</svg>